# xmcd
#
# Track frame offsets:
#	150
#	12979
#	26324
#	43477
#	61994
#	79330
#	95912
#	111556
#	127511
#	141239
#	157800
#	178071
#	190827
#	209533
#	222177
#	237163
#	254924
#	272669
#	289443
#
# Disc length: 4103 seconds
#
# Revision: 1
# Processed by: cddbd v1.5.2PL0 Copyright (c) Steve Scherf et al.
# Submitted via: audiograbber 1.83.01
#
DISCID=25100513
DTITLE=Various Artist - Hott Country 144 - February 2008
DYEAR=2008
DGENRE=Country
TTITLE0=Taylor Swift - Picture To Burn
TTITLE1=Alex J Robinson - Breakin' On The Love Thing
TTITLE2=Johnny Reid - Thank You
TTITLE3=Brad Paisley - I'm Still A Guy
TTITLE4=Brad Johner - What A Girl Wants
TTITLE5=Dierks Bentley - Trying To Stop Your Leaving
TTITLE6=Drew Davis Band - Back There All The Time
TTITLE7=Crystal Shawanda - You Can Let Go
TTITLE8=Trisha Yearwood - This Is Me You're Talking To
TTITLE9=Ridley Bent - Heartland Heartbreak
TTITLE10=Rascal Flatts - He Ain't The Leavin' Kind
TTITLE11=Amber Nicholson - Afraid To Love
TTITLE12=Nikki Werner - How Can You Love Someone
TTITLE13=Anne Murray ft. Nelly Furtado - Daydream Believer
TTITLE14=Jason Michawl Carroll - I Can Sleep When I'm Dead
TTITLE15=Kevin Fowler - Best Mistake I Ever Made
TTITLE16=Nikki Werner - Let Your Love Flow
TTITLE17=John Turner ft. Trisha Yearwood - Another Try
TTITLE18=Vince Gill - Pocket Full Of Gold (1991)
EXTD=
EXTT0=
EXTT1=
EXTT2=
EXTT3=
EXTT4=
EXTT5=
EXTT6=
EXTT7=
EXTT8=
EXTT9=
EXTT10=
EXTT11=
EXTT12=
EXTT13=
EXTT14=
EXTT15=
EXTT16=
EXTT17=
EXTT18=
PLAYORDER=
